<svg width="32" height="32" viewBox="0 0 32 32" fill="none" xmlns="http://www.w3.org/2000/svg">
<path d="M18.2409 26.925C16.7209 28.5083 14.9792 30.1391 13 31.8333C4.56087 24.6291 0.333374 18.4066 0.333374 13.15C0.333374 5.26496 6.35004 0.166626 13 0.166626C19.3334 0.166626 25.0967 4.78996 25.6192 12.0416H31.2084L24.0834 19.1666L16.9584 12.0416H22.4525C21.9459 6.87996 17.9559 3.33329 13 3.33329C7.69587 3.33329 3.50004 7.40246 3.50004 13.15C3.50004 16.855 6.58754 21.7633 13 27.6216C14.0134 26.6875 14.9475 25.785 15.8025 24.9141C15.5239 24.3644 15.3775 23.7571 15.375 23.1408C15.375 22.091 15.7921 21.0842 16.5344 20.3418C17.2767 19.5995 18.2836 19.1825 19.3334 19.1825C20.3832 19.1825 21.39 19.5995 22.1323 20.3418C22.8747 21.0842 23.2917 22.091 23.2917 23.1408C23.2912 23.7531 23.1481 24.3568 22.8739 24.9043C22.5997 25.4517 22.2019 25.9278 21.7119 26.295C21.2219 26.6621 20.6531 26.9101 20.0507 27.0195C19.4483 27.1288 18.8286 27.0965 18.2409 26.925Z" fill="#FA793C"/>
</svg>
